<svg width="23" height="22" viewBox="0 0 23 22" fill="none" xmlns="http://www.w3.org/2000/svg">
<path d="M21.2916 19.25C21.2916 19.25 22.6666 19.25 22.6666 17.875C22.6666 16.5 21.2916 12.375 15.7916 12.375C10.2916 12.375 8.91663 16.5 8.91663 17.875C8.91663 19.25 10.2916 19.25 10.2916 19.25H21.2916ZM10.3219 17.875C10.3117 17.8736 10.3016 17.8718 10.2916 17.8695C10.293 17.5065 10.5213 16.4532 11.3366 15.5045C12.0956 14.6149 13.4294 13.75 15.7916 13.75C18.1525 13.75 19.4862 14.6163 20.2466 15.5045C21.062 16.4532 21.2889 17.5079 21.2916 17.8695L21.2806 17.8723C21.2742 17.8733 21.2678 17.8742 21.2614 17.875H10.3219ZM15.7916 9.625C16.521 9.625 17.2204 9.33527 17.7362 8.81954C18.2519 8.30382 18.5416 7.60435 18.5416 6.875C18.5416 6.14565 18.2519 5.44618 17.7362 4.93046C17.2204 4.41473 16.521 4.125 15.7916 4.125C15.0623 4.125 14.3628 4.41473 13.8471 4.93046C13.3314 5.44618 13.0416 6.14565 13.0416 6.875C13.0416 7.60435 13.3314 8.30382 13.8471 8.81954C14.3628 9.33527 15.0623 9.625 15.7916 9.625ZM19.9166 6.875C19.9166 7.4167 19.8099 7.9531 19.6026 8.45357C19.3953 8.95404 19.0915 9.40877 18.7084 9.79182C18.3254 10.1749 17.8707 10.4787 17.3702 10.686C16.8697 10.8933 16.3333 11 15.7916 11C15.2499 11 14.7135 10.8933 14.2131 10.686C13.7126 10.4787 13.2579 10.1749 12.8748 9.79182C12.4918 9.40877 12.1879 8.95404 11.9806 8.45357C11.7733 7.9531 11.6666 7.4167 11.6666 6.875C11.6666 5.78098 12.1012 4.73177 12.8748 3.95818C13.6484 3.1846 14.6976 2.75 15.7916 2.75C16.8856 2.75 17.9349 3.1846 18.7084 3.95818C19.482 4.73177 19.9166 5.78098 19.9166 6.875ZM10.2036 12.76C9.6536 12.5868 9.08662 12.4729 8.51238 12.4204C8.18971 12.3897 7.86575 12.3745 7.54163 12.375C2.04163 12.375 0.666626 16.5 0.666626 17.875C0.666626 18.7921 1.1245 19.25 2.04163 19.25H7.83863C7.63479 18.8207 7.53313 18.3501 7.54163 17.875C7.54163 16.4862 8.06 15.0672 9.04038 13.882C9.3745 13.4777 9.76363 13.0996 10.2036 12.76ZM7.43163 13.75C6.61784 14.9727 6.17823 16.4062 6.16663 17.875H2.04163C2.04163 17.5175 2.26713 16.4587 3.08663 15.5045C3.836 14.63 5.13813 13.7775 7.43163 13.7514V13.75ZM2.72913 7.5625C2.72913 6.46848 3.16372 5.41927 3.93731 4.64568C4.7109 3.8721 5.76011 3.4375 6.85413 3.4375C7.94814 3.4375 8.99735 3.8721 9.77094 4.64568C10.5445 5.41927 10.9791 6.46848 10.9791 7.5625C10.9791 8.65652 10.5445 9.70573 9.77094 10.4793C8.99735 11.2529 7.94814 11.6875 6.85413 11.6875C5.76011 11.6875 4.7109 11.2529 3.93731 10.4793C3.16372 9.70573 2.72913 8.65652 2.72913 7.5625ZM6.85413 4.8125C6.12478 4.8125 5.42531 5.10223 4.90958 5.61796C4.39386 6.13368 4.10413 6.83315 4.10413 7.5625C4.10413 8.29185 4.39386 8.99132 4.90958 9.50704C5.42531 10.0228 6.12478 10.3125 6.85413 10.3125C7.58347 10.3125 8.28294 10.0228 8.79867 9.50704C9.31439 8.99132 9.60413 8.29185 9.60413 7.5625C9.60413 6.83315 9.31439 6.13368 8.79867 5.61796C8.28294 5.10223 7.58347 4.8125 6.85413 4.8125Z" fill="#A4A4A4"/>
</svg>
