<svg width="45" height="45" viewBox="0 0 45 45" fill="none" stroke="currentColor" xmlns="http://www.w3.org/2000/svg">
<path d="M18.765 18.75L13.9312 14.9119C13.3687 14.4394 13.0875 14.205 13.1531 13.9613C13.2169 13.7175 13.5787 13.6538 14.3006 13.53L16.5 13.1438C17.3381 12.9975 17.4431 12.7819 17.07 12.0188L14.7375 7.25628C14.2763 6.31128 14.0438 5.83878 14.2556 5.64003C14.4675 5.43941 14.9212 5.70003 15.8306 6.22128L19.7513 8.47503C20.4263 8.86316 20.4938 8.84441 20.8425 8.14316L22.425 4.96128C22.8375 4.13253 23.0437 3.71816 23.3175 3.75191C23.5931 3.78566 23.6925 4.23941 23.8931 5.14316L25.1681 10.9182C25.3369 11.6757 25.5319 11.7807 26.2444 11.4732L30.4988 9.63941C31.2394 9.32066 31.6088 9.16128 31.7963 9.34503C31.9838 9.52878 31.8338 9.90566 31.5338 10.6575L28.1362 18.75M23.4263 18.75L22.4888 15.9375M3.75 24.375H12.6469C14.0869 25.3144 15.2944 25.4438 16.8281 26.2238C18.7313 27.3375 19.6369 29.0625 19.6275 31.875C19.6275 33.75 19.8712 35.6625 19.2787 36.6938C18.6 37.875 14.4319 37.4963 14.0569 37.4963C14.0569 39.5625 12.5456 41.25 10.3069 41.25C8.25188 41.25 6.57375 39.5625 6.57375 37.4963M12.6469 24.3732C10.7269 23.1207 9.675 20.7882 8.4975 18.8982C6.8625 16.0857 4.62375 15.1857 3.7725 15.0075M6.57375 37.4963C6.57473 36.5056 6.96768 35.5556 7.66678 34.8537C8.36589 34.1517 9.31434 33.755 10.305 33.75C12.5437 33.75 14.055 35.5313 14.055 37.4963M6.57375 37.4963H3.75M32.355 24.3694H41.25M32.355 24.3694C30.9131 25.3107 29.7075 25.4382 28.1738 26.22C26.2687 27.3338 25.365 29.0588 25.3725 31.8732C25.3725 33.7482 25.1287 35.6607 25.7231 36.6919C26.4019 37.8732 30.57 37.4944 30.945 37.4944M32.355 24.3694C34.2731 23.115 35.3269 20.7825 36.5025 18.8944C38.1375 16.0819 40.3781 15.18 41.2275 15M30.945 37.4944C30.945 39.5625 32.4562 41.25 34.695 41.25C36.7481 41.25 38.4262 39.5625 38.4262 37.4944M30.945 37.4944C30.945 35.5294 32.4562 33.7482 34.695 33.7482C35.6857 33.7531 36.6341 34.1499 37.3332 34.8518C38.0323 35.5537 38.4253 36.5037 38.4262 37.4944M38.4262 37.4944H41.25" stroke="black" stroke-width="1.5" stroke-linecap="round" stroke-linejoin="round"/>
</svg>
