<svg width="46" height="45" viewBox="0 0 46 45" fill="none" xmlns="http://www.w3.org/2000/svg">
<path d="M9.875 39.375H36.125M32.375 39.375V30H34.25C34.7473 30 35.2242 29.8025 35.5758 29.4508C35.9275 29.0992 36.125 28.6223 36.125 28.125V24.375C36.125 23.8777 35.9275 23.4008 35.5758 23.0492C35.2242 22.6975 34.7473 22.5 34.25 22.5H32.375V15C32.375 12.5136 31.3873 10.129 29.6291 8.37087C27.871 6.61272 25.4864 5.625 23 5.625C20.5136 5.625 18.129 6.61272 16.3709 8.37087C14.6127 10.129 13.625 12.5136 13.625 15V22.5H11.75C11.2527 22.5 10.7758 22.6975 10.4242 23.0492C10.0725 23.4008 9.875 23.8777 9.875 24.375V28.125C9.875 28.6223 10.0725 29.0992 10.4242 29.4508C10.7758 29.8025 11.2527 30 11.75 30H13.625V39.375" stroke="black" stroke-width="2" stroke-linecap="round" stroke-linejoin="round"/>
<path d="M11.75 15H34.25M19.25 26.25C19.25 27.2446 19.6451 28.1984 20.3484 28.9016C21.0516 29.6049 22.0054 30 23 30C23.9946 30 24.9484 29.6049 25.6516 28.9016C26.3549 28.1984 26.75 27.2446 26.75 26.25C26.75 25.2554 26.3549 24.3016 25.6516 23.5984C24.9484 22.8951 23.9946 22.5 23 22.5C22.0054 22.5 21.0516 22.8951 20.3484 23.5984C19.6451 24.3016 19.25 25.2554 19.25 26.25Z" stroke="black" stroke-width="2" stroke-linecap="round" stroke-linejoin="round"/>
</svg>
