<svg width="22" height="22" viewBox="0 0 22 22" fill="none" xmlns="http://www.w3.org/2000/svg">
<path d="M3.87041 21.0832H18.1297C18.6699 21.0832 19.188 20.8707 19.5701 20.4925C19.9521 20.1143 20.1667 19.6014 20.1667 19.0666V9.99194C20.1675 9.85925 20.1418 9.7277 20.0911 9.60485C20.0404 9.48201 19.9657 9.37027 19.8713 9.27606L11.7232 1.20971C11.5323 1.02191 11.2742 0.916504 11.0051 0.916504C10.736 0.916504 10.4779 1.02191 10.2871 1.20971L2.13893 9.27606C2.04269 9.36944 1.96613 9.4808 1.91368 9.60369C1.86123 9.72657 1.83393 9.85854 1.83337 9.99194V19.0666C1.83337 19.6014 2.04799 20.1143 2.43001 20.4925C2.81203 20.8707 3.33015 21.0832 3.87041 21.0832ZM8.963 19.0666V14.0251H13.0371V19.0666H8.963ZM3.87041 10.4053L11 3.34729L18.1297 10.4053V19.0666H15.0741V14.0251C15.0741 13.4903 14.8595 12.9774 14.4775 12.5992C14.0954 12.221 13.5773 12.0085 13.0371 12.0085H8.963C8.42274 12.0085 7.90461 12.221 7.5226 12.5992C7.14058 12.9774 6.92596 13.4903 6.92596 14.0251V19.0666H3.87041V10.4053Z" fill="#E02323"/>
</svg>
