<svg width="46" height="45" viewBox="0 0 46 45" fill="none" xmlns="http://www.w3.org/2000/svg">
<path d="M1.90625 26.7207V43.5957" stroke="black" stroke-width="2" stroke-linecap="round" stroke-linejoin="round"/>
<path d="M1.90625 40.7832H30.0312C30.0312 37.6766 27.5129 35.1582 24.4062 35.1582H17.375C17.375 32.0516 14.8566 29.5332 11.75 29.5332H1.90625" stroke="black" stroke-width="2" stroke-linecap="round" stroke-linejoin="round"/>
<path d="M11.75 35.1582H17.375" stroke="black" stroke-width="2" stroke-linecap="round" stroke-linejoin="round"/>
<path fill-rule="evenodd" clip-rule="evenodd" d="M44.0938 11.25C44.0938 10.4733 43.4642 9.84375 42.6875 9.84375H35.6562V2.8125C35.6562 2.03585 35.0267 1.40625 34.25 1.40625H28.625C27.8483 1.40625 27.2188 2.03585 27.2188 2.8125V9.84375H20.1875C19.4108 9.84375 18.7812 10.4733 18.7812 11.25V16.875C18.7812 17.6517 19.4108 18.2812 20.1875 18.2812H27.2188V25.3125C27.2188 26.0892 27.8483 26.7188 28.625 26.7188H34.25C35.0267 26.7188 35.6562 26.0892 35.6562 25.3125V18.2812H42.6875C43.4642 18.2812 44.0938 17.6517 44.0938 16.875V11.25Z" stroke="black" stroke-width="2" stroke-linecap="round" stroke-linejoin="round"/>
</svg>
