<svg width="36" height="37" viewBox="0 0 36 37" fill="none" xmlns="http://www.w3.org/2000/svg">
<path fill-rule="evenodd" clip-rule="evenodd" d="M9 15.5C7.35 15.5 6 16.85 6 18.5C6 20.15 7.35 21.5 9 21.5C10.65 21.5 12 20.15 12 18.5C12 16.85 10.65 15.5 9 15.5ZM27 15.5C25.35 15.5 24 16.85 24 18.5C24 20.15 25.35 21.5 27 21.5C28.65 21.5 30 20.15 30 18.5C30 16.85 28.65 15.5 27 15.5ZM15 18.5C15 16.85 16.35 15.5 18 15.5C19.65 15.5 21 16.85 21 18.5C21 20.15 19.65 21.5 18 21.5C16.35 21.5 15 20.15 15 18.5Z" fill="black"/>
</svg>
