<svg width="46" height="45" viewBox="0 0 46 45" fill="none" xmlns="http://www.w3.org/2000/svg">
<path d="M19.9775 19.8168L16.9963 32.3456C16.9371 32.5751 16.8852 32.8065 16.8406 33.0393C16.6557 34.1063 16.7826 35.204 17.2063 36.2006C17.2738 36.3618 17.3544 36.5193 17.5138 36.84C17.6188 37.0518 17.6713 37.1568 17.6956 37.2375C17.7324 37.3635 17.7424 37.4958 17.7248 37.6259C17.7072 37.7559 17.6625 37.8809 17.5935 37.9926C17.5246 38.1043 17.433 38.2003 17.3246 38.2743C17.2162 38.3484 17.0935 38.3988 16.9644 38.4225C16.88 38.4375 16.7638 38.4375 16.5294 38.4375H8.99001C6.80751 38.4375 5.71626 38.4375 5.16126 37.7212C4.60626 37.005 4.87063 35.94 5.39938 33.81L7.93626 23.595C8.04859 23.1482 8.05783 22.6817 7.96328 22.2309C7.86874 21.78 7.67288 21.3566 7.39054 20.9926C7.10819 20.6286 6.74675 20.3336 6.33357 20.1299C5.92039 19.9262 5.46629 19.8191 5.00563 19.8168C4.906 19.8166 4.80739 19.7967 4.71546 19.7583C4.62353 19.7199 4.54007 19.6637 4.46988 19.593C4.39969 19.5223 4.34414 19.4384 4.30641 19.3462C4.26868 19.254 4.24952 19.1552 4.25001 19.0556V14.2312C4.25001 9.60933 5.20813 8.64558 9.80001 8.64558H34.565C35.7275 8.64558 36.6069 8.37183 37.5556 7.73433C38.6638 6.98996 40.0306 5.63808 41.0356 7.51871C42.0463 9.40683 42.1006 17.3325 40.4431 19.0012C39.6313 19.8187 38.3225 19.8187 35.705 19.8187L19.9775 19.8168ZM19.9775 19.8168H17.2025" stroke="black" stroke-width="1.5" stroke-linecap="round" stroke-linejoin="round"/>
<path d="M17.375 27.1875H19.0194C20.8006 27.1875 21.6931 27.1875 22.475 27.0187C23.5808 26.7804 24.6184 26.2949 25.51 25.5987C26.4017 24.9026 27.1243 24.0137 27.6237 22.9987C27.9762 22.2806 28.1919 21.4162 28.625 19.6875M4.25 14.0625H8.0525C10.3081 14.0625 11.435 14.0625 12.3406 13.5019C13.2481 12.9431 13.7525 11.9344 14.7594 9.91688L15.5 8.4375M41.75 14.0625H36.125" stroke="black" stroke-width="1.5" stroke-linecap="round" stroke-linejoin="round"/>
</svg>
