<svg width="24" height="24" viewBox="0 0 24 24" fill="none" xmlns="http://www.w3.org/2000/svg">
<g clip-path="url(#clip0_44_872)">
<path d="M12.2657 11.3283C13.1958 11.3283 14.1051 11.0525 14.8784 10.5358C15.6518 10.019 16.2546 9.28457 16.6105 8.42526C16.9664 7.56595 17.0596 6.62038 16.8781 5.70814C16.6967 4.79589 16.2488 3.95795 15.5911 3.30026C14.9334 2.64256 14.0954 2.19467 13.1832 2.01322C12.2709 1.83176 11.3254 1.92489 10.4661 2.28083C9.60676 2.63677 8.87229 3.23953 8.35554 4.01289C7.8388 4.78626 7.56299 5.69548 7.56299 6.6256C7.56299 7.87284 8.05845 9.069 8.94039 9.95094C9.82233 10.8329 11.0185 11.3283 12.2657 11.3283ZM12.2657 3.26649C12.9301 3.26649 13.5795 3.4635 14.1319 3.83261C14.6844 4.20171 15.1149 4.72633 15.3691 5.34012C15.6234 5.95392 15.6899 6.62932 15.5603 7.28093C15.4307 7.93253 15.1108 8.53106 14.641 9.00084C14.1712 9.47062 13.5727 9.79054 12.9211 9.92016C12.2695 10.0498 11.5941 9.98325 10.9803 9.729C10.3665 9.47476 9.84184 9.04422 9.47274 8.49182C9.10364 7.93941 8.90663 7.28997 8.90663 6.6256C8.90663 5.73471 9.26053 4.88031 9.89049 4.25035C10.5204 3.6204 11.3748 3.26649 12.2657 3.26649Z" fill="#A4A4A4"/>
<path d="M20.644 16.2801C19.5666 15.1413 18.2683 14.2343 16.8284 13.6144C15.3885 12.9945 13.8374 12.6748 12.2697 12.6748C10.7021 12.6748 9.15094 12.9945 7.71108 13.6144C6.27121 14.2343 4.97289 15.1413 3.8955 16.2801C3.66192 16.5295 3.53219 16.8587 3.53272 17.2004V20.7342C3.53272 21.0906 3.67428 21.4323 3.92626 21.6843C4.17824 21.9363 4.52 22.0779 4.87636 22.0779H19.6564C20.0128 22.0779 20.3545 21.9363 20.6065 21.6843C20.8585 21.4323 21.0001 21.0906 21.0001 20.7342V17.2004C21.0024 16.8596 20.8751 16.5306 20.644 16.2801ZM19.6564 20.7342H4.87636V17.1937C5.82848 16.1912 6.97465 15.3928 8.24511 14.8473C9.51556 14.3017 10.8837 14.0204 12.2664 14.0204C13.649 14.0204 15.0172 14.3017 16.2877 14.8473C17.5581 15.3928 18.7043 16.1912 19.6564 17.1937V20.7342Z" fill="#A4A4A4"/>
</g>
<defs>
<clipPath id="clip0_44_872">
<rect width="24" height="24" fill="white"/>
</clipPath>
</defs>
</svg>
