<svg width="46" height="41" viewBox="0 0 46 41" fill="none" xmlns="http://www.w3.org/2000/svg">
<path d="M6.10156 27.9766H6.125H7.375H7.39844V28V38C7.39844 39.3699 8.50513 40.4766 9.875 40.4766C11.2449 40.4766 12.3516 39.3699 12.3516 38V20.2422V20.1615L12.3948 20.2296L13.4104 21.8311L6.10156 27.9766ZM6.10156 27.9766V28M6.10156 27.9766V28M6.10156 28V38C6.10156 39.3699 4.99487 40.4766 3.625 40.4766C2.25513 40.4766 1.14844 39.3699 1.14844 38V15.5C1.14844 12.7551 3.38013 10.5234 6.125 10.5234H8.67969C10.8123 10.5234 12.797 11.6131 13.9333 13.4187L13.9333 13.4188L16.8552 18.0204L16.8621 18.0312M6.10156 28L16.8621 18.0312M16.8621 18.0312H16.875M16.8621 18.0312H16.875M16.875 18.0312H19.25C20.6199 18.0312 21.7266 19.1379 21.7266 20.5078C21.7266 21.8777 20.6199 22.9844 19.25 22.9844H15.5C14.6567 22.9844 13.8672 22.5433 13.4104 21.8312L16.875 18.0312ZM24.1491 2.39622L24.1491 2.39636L24.8366 5.12286C25.6283 8.29737 28.4814 10.5234 31.75 10.5234C35.0125 10.5234 37.861 8.30567 38.6589 5.14062H38.6667L38.6712 5.12286L39.3509 2.39629L39.3509 2.39622C39.6759 1.07297 41.0146 0.268052 42.3459 0.600863C43.6771 0.933662 44.4819 2.28031 44.1491 3.60366L44.1491 3.60371L43.4694 6.33025C42.6117 9.76109 40.3349 12.537 37.3641 14.0964L37.3516 14.103V14.1172V38C37.3516 39.3699 36.2449 40.4766 34.875 40.4766C33.5051 40.4766 32.3984 39.3699 32.3984 38V28V27.9766H32.375H31.125H31.1016V28V38C31.1016 39.3699 29.9949 40.4766 28.625 40.4766C27.2551 40.4766 26.1484 39.3699 26.1484 38V14.1172V14.103L26.1359 14.0964C23.1651 12.537 20.8883 9.7611 20.0306 6.33027C20.0306 6.33026 20.0305 6.33026 20.0305 6.33025L19.3509 3.60371L19.3509 3.60369C19.018 2.27241 19.8152 0.933638 21.1463 0.600863C22.4776 0.268035 23.8241 1.07304 24.1491 2.39622ZM34.3851 6.88508C33.6862 7.58394 32.7383 7.97656 31.75 7.97656C30.7617 7.97656 29.8138 7.58394 29.1149 6.88508C28.4161 6.18621 28.0234 5.23835 28.0234 4.25C28.0234 3.26165 28.4161 2.31379 29.1149 1.61492C29.8138 0.916056 30.7617 0.523438 31.75 0.523438C32.7383 0.523438 33.6862 0.916056 34.3851 1.61492C35.0839 2.31379 35.4766 3.26165 35.4766 4.25C35.4766 5.23835 35.0839 6.18621 34.3851 6.88508ZM9.38508 6.88508C8.68621 7.58394 7.73835 7.97656 6.75 7.97656C5.76165 7.97656 4.81379 7.58394 4.11492 6.88508C3.41606 6.18621 3.02344 5.23835 3.02344 4.25C3.02344 3.26165 3.41606 2.31379 4.11492 1.61492C4.81379 0.916056 5.76165 0.523438 6.75 0.523438C7.73835 0.523438 8.68621 0.916056 9.38508 1.61492C10.0839 2.31379 10.4766 3.26165 10.4766 4.25C10.4766 5.23835 10.0839 6.18621 9.38508 6.88508Z" fill="black" stroke="black" stroke-width="0.046875"/>
</svg>
