<svg width="23" height="22" viewBox="0 0 23 22" fill="currentColor" xmlns="http://www.w3.org/2000/svg">
<path fill-rule="evenodd" clip-rule="evenodd" d="M2.16675 11.0002C2.16675 5.94016 6.26425 1.8335 11.3242 1.8335C16.3934 1.8335 20.5001 5.94016 20.5001 11.0002C20.5001 16.0602 16.3934 20.1668 11.3242 20.1668C6.26425 20.1668 2.16675 16.0602 2.16675 11.0002ZM12.2501 7.3335C12.2501 6.82933 11.8376 6.41683 11.3334 6.41683C10.8292 6.41683 10.4167 6.82933 10.4167 7.3335V11.0002C10.4167 11.5043 10.8292 11.9168 11.3334 11.9168C11.8376 11.9168 12.2501 11.5043 12.2501 11.0002V7.3335ZM11.3334 18.3335C7.28175 18.3335 4.00008 15.0518 4.00008 11.0002C4.00008 6.9485 7.28175 3.66683 11.3334 3.66683C15.3851 3.66683 18.6667 6.9485 18.6667 11.0002C18.6667 15.0518 15.3851 18.3335 11.3334 18.3335ZM10.4167 13.7502V15.5835H12.2501V13.7502H10.4167Z" fill="#A4A4A4"/>
</svg>
